<?xml version="1.0" standalone="no"?>
<!DOCTYPE svg PUBLIC "-//W3C//DTD SVG 20010904//EN"
 "http://www.w3.org/TR/2001/REC-SVG-20010904/DTD/svg10.dtd">
<svg version="1.0" xmlns="http://www.w3.org/2000/svg"
 width="128.000000pt" height="128.000000pt" viewBox="0 0 128.000000 128.000000"
 preserveAspectRatio="xMidYMid meet">

<g transform="translate(0.000000,128.000000) scale(0.100000,-0.100000)"
fill="#000000" stroke="none">
<path d="M757 940 c-4 -16 -15 -38 -25 -48 -11 -11 -22 -35 -24 -53 -3 -19 -8
-42 -13 -52 -5 -13 -3 -16 7 -12 8 3 21 -1 28 -9 10 -13 9 -23 -4 -57 -9 -23
-15 -43 -12 -46 2 -2 9 12 16 32 7 20 15 35 18 33 38 -18 82 -52 75 -58 -4 -4
-30 -15 -56 -25 -38 -14 -50 -16 -56 -6 -6 8 -14 -1 -25 -28 -22 -55 -19 -66
4 -16 l19 40 0 -56 c1 -52 4 -59 36 -83 l34 -26 128 54 c201 84 183 72 183
127 0 43 -4 51 -37 78 -21 17 -42 31 -48 30 -5 0 -4 -3 3 -6 7 -3 12 -23 12
-49 0 -39 -3 -46 -27 -55 -16 -6 -40 -12 -55 -13 -14 0 -26 -5 -25 -9 2 -8
-168 -87 -185 -87 -5 0 -8 17 -8 39 0 37 1 39 56 60 43 16 60 19 70 10 8 -6
14 -8 14 -3 0 5 4 2 10 -6 5 -8 12 -11 17 -7 9 9 -17 28 -29 21 -4 -3 -8 -3
-8 0 0 2 20 15 45 27 l45 23 -89 34 -89 35 13 31 c16 37 19 36 127 -9 45 -19
83 -33 85 -31 2 2 -37 21 -87 42 -51 21 -94 43 -97 50 -2 7 0 21 6 31 7 14 5
27 -11 51 -25 40 -34 40 -41 2z m38 -38 c4 -24 -19 -50 -30 -32 -3 6 -12 7
-18 3 -7 -3 -4 3 6 14 9 11 14 22 11 26 -3 3 -3 11 1 17 9 15 24 1 30 -28z
m-21 -76 c-15 -48 -54 -57 -54 -12 0 29 17 45 41 39 15 -4 18 -11 13 -27z
m288 -113 c12 -11 18 -30 18 -60 l0 -44 -25 18 c-19 14 -24 27 -25 61 0 46 5
50 32 25z m-26 -95 c10 -13 15 -20 10 -15 -5 4 -18 0 -28 -10 -10 -9 -18 -13
-18 -10 0 16 -2 23 -13 36 -9 11 -9 13 0 8 6 -4 14 -3 18 3 8 14 9 13 31 -12z
m-100 -31 c0 -18 -5 -23 -23 -22 -12 0 -28 7 -35 14 -9 9 -9 12 -1 7 6 -3 14
-2 18 4 4 6 10 8 15 5 5 -3 11 -1 15 5 9 15 11 13 11 -13z m-86 -62 c0 -6 -3
-10 -7 -10 -5 0 -15 -5 -23 -10 -33 -21 -47 -10 -28 21 9 13 58 12 58 -1z"/>
<path d="M772 915 c4 -4 3 -14 -3 -21 -7 -8 -7 -14 1 -19 5 -3 10 -5 11 -3 6
27 5 39 -4 45 -7 3 -9 3 -5 -2z"/>
<path d="M1009 628 c0 -2 -2 -11 -4 -21 -3 -15 -1 -16 11 -6 7 6 11 15 8 20
-5 9 -13 12 -15 7z"/>
<path d="M895 579 c-3 -4 2 -6 10 -5 21 3 28 13 10 13 -9 0 -18 -4 -20 -8z"/>
<path d="M794 519 c-8 -14 14 -19 25 -6 8 10 7 14 -5 14 -8 0 -17 -4 -20 -8z"/>
<path d="M666 935 c-9 -26 -7 -32 5 -12 6 10 9 21 6 23 -2 3 -7 -2 -11 -11z"/>
<path d="M646 885 c-9 -26 -7 -32 5 -12 6 10 9 21 6 23 -2 3 -7 -2 -11 -11z"/>
<path d="M470 869 c-12 -8 -10 -9 8 -4 18 5 30 -1 58 -30 18 -20 34 -32 34
-28 0 12 -63 73 -75 73 -6 0 -17 -5 -25 -11z"/>
<path d="M410 845 c-14 -8 -20 -14 -15 -14 6 0 21 6 35 14 14 8 21 14 15 14
-5 0 -21 -6 -35 -14z"/>
<path d="M492 830 c0 -14 2 -19 5 -12 2 6 2 18 0 25 -3 6 -5 1 -5 -13z"/>
<path d="M350 820 c-8 -5 -10 -10 -5 -10 6 0 17 5 25 10 8 5 11 10 5 10 -5 0
-17 -5 -25 -10z"/>
<path d="M280 790 c-8 -5 -10 -10 -5 -10 6 0 17 5 25 10 8 5 11 10 5 10 -5 0
-17 -5 -25 -10z"/>
<path d="M491 795 c-1 -6 -30 -21 -66 -33 -36 -13 -65 -28 -65 -33 0 -6 -4 -8
-9 -5 -5 3 -24 0 -42 -8 l-34 -14 28 -11 c16 -6 33 -9 38 -5 5 3 9 1 9 -5 0
-5 32 -21 70 -36 l70 -27 0 -39 c0 -21 -3 -39 -8 -39 -4 0 -61 23 -127 51 -66
28 -130 55 -143 60 l-23 9 19 -27 c32 -45 56 -62 125 -92 55 -23 64 -30 54
-41 -10 -12 -9 -12 4 -2 13 10 24 9 52 -3 34 -14 35 -16 25 -48 -24 -78 84
-137 135 -74 16 21 17 21 11 2 -5 -19 -5 -19 6 -2 6 10 9 25 6 33 -3 8 3 36
13 62 32 81 33 88 7 42 -14 -25 -25 -52 -26 -61 0 -26 -22 -39 -41 -26 -14 10
-14 17 -4 47 7 19 17 34 22 33 6 -1 9 8 7 20 -5 30 57 153 75 149 11 -2 12 0
4 10 -11 13 -10 30 2 61 4 9 5 17 2 17 -2 0 -28 -57 -56 -127 -29 -71 -59
-137 -67 -147 -13 -19 -14 -19 -34 -1 -23 20 -25 37 -9 66 10 20 11 20 32 2
l22 -18 -19 22 c-13 16 -16 30 -12 50 7 25 6 26 -6 10 -13 -17 -15 -17 -27 -3
-7 8 -35 22 -63 32 -36 12 -46 19 -37 25 8 5 10 9 4 9 -5 0 -4 5 3 12 14 14
16 32 3 24 -5 -4 -8 2 -7 11 2 10 7 18 12 18 5 0 16 5 24 10 22 14 38 15 36 1
-3 -19 -36 -62 -36 -46 0 9 -4 8 -14 -6 -8 -10 -13 -21 -11 -23 5 -4 145 49
145 56 0 3 -11 3 -25 1 -16 -3 -30 1 -37 11 -12 14 -11 15 7 1 19 -14 19 -14
4 5 -9 11 -19 27 -22 35 -3 8 -6 10 -6 5z m-111 -70 c-10 -12 -10 -18 -1 -29
7 -8 8 -17 3 -20 -6 -3 -15 1 -22 9 -7 8 -16 13 -20 10 -5 -3 -12 0 -16 6 -4
8 -3 9 4 5 7 -4 12 -2 12 4 0 6 4 9 9 6 5 -3 14 1 21 9 7 8 15 15 17 15 3 0 0
-7 -7 -15z m132 -167 c-10 -22 -11 -21 -11 12 -1 26 2 31 11 22 8 -8 8 -17 0
-34z m30 -107 c16 -14 -10 -32 -42 -29 -31 3 -33 4 -17 19 9 9 13 20 9 24 -8
9 40 -4 50 -14z m45 -44 c6 -4 9 -17 6 -28 -6 -21 -6 -21 -24 2 -10 13 -19 27
-19 31 0 8 21 5 37 -5z"/>
<path d="M204 754 c-18 -14 -18 -14 6 -3 31 14 36 19 24 19 -6 0 -19 -7 -30
-16z"/>
<path d="M450 745 c-7 -8 -17 -12 -24 -8 -6 3 -7 2 -3 -2 4 -5 14 -10 22 -11
18 -3 40 22 27 30 -6 3 -15 -1 -22 -9z"/>
<path d="M566 689 c-9 -23 -15 -43 -13 -46 3 -2 12 15 21 38 9 23 15 43 13 46
-3 2 -12 -15 -21 -38z"/>
</g>
</svg>
